HIERARCHY
ROOT Hips
{
	OFFSET 0.000000 0.000000 0.000000 
	CHANNELS 6 Xposition Yposition Zposition Zrotation Yrotation Xrotation
	JOINT LeftUpLeg
	{
		OFFSET 1.363060 -1.794630 0.839290 
		CHANNELS 3 Zrotation Yrotation Xrotation
		JOINT LeftLeg
		{
			OFFSET 2.448110 -6.726130 0.000000 
			CHANNELS 3 Zrotation Yrotation Xrotation
			JOINT LeftFoot
			{
				OFFSET 2.562200 -7.039590 0.000000 
				CHANNELS 3 Zrotation Yrotation Xrotation
				JOINT LeftToeBase
				{
					OFFSET 0.157640 -0.433110 2.322550 
					CHANNELS 3 Zrotation Yrotation Xrotation
					End Site
					{
						OFFSET 0.000000 0.000000 0.000000 
					}
				}
			}
		}
	}
	JOINT RightUpLeg
	{
		OFFSET -1.305520 -1.794630 0.839290 
		CHANNELS 3 Zrotation Yrotation Xrotation
		JOINT RightLeg
		{
			OFFSET -2.542530 -6.985550 0.000000 
			CHANNELS 3 Zrotation Yrotation Xrotation
			JOINT RightFoot
			{
				OFFSET -2.568260 -7.056230 0.000000 
				CHANNELS 3 Zrotation Yrotation Xrotation
				JOINT RightToeBase
				{
					OFFSET -0.164730 -0.452590 2.363150 
					CHANNELS 3 Zrotation Yrotation Xrotation
					End Site
					{
						OFFSET 0.000000 0.000000 0.000000 
					}
				}
			}
		}
	}
	JOINT Spine
	{
		OFFSET 0.028270 2.035590 -0.193380 
		CHANNELS 3 Zrotation Yrotation Xrotation
		JOINT Spine1
		{
			OFFSET 0.056720 2.048850 -0.042750 
			CHANNELS 3 Zrotation Yrotation Xrotation
			JOINT Neck1
			{
				OFFSET -0.054170 1.746240 0.172020 
				CHANNELS 3 Zrotation Yrotation Xrotation
				JOINT Head
				{
					OFFSET 0.104070 1.761360 -0.123970 
					CHANNELS 3 Zrotation Yrotation Xrotation
					End Site
					{
						OFFSET 0.000000 0.000000 0.000000 
					}
				}
			}
			JOINT LeftArm
			{
				OFFSET 3.362410 1.200890 -0.311210 
				CHANNELS 3 Zrotation Yrotation Xrotation
				JOINT LeftForeArm
				{
					OFFSET 4.983000 -0.000000 -0.000000 
					CHANNELS 3 Zrotation Yrotation Xrotation
					JOINT LeftHand
					{
						OFFSET 3.483560 -0.000000 -0.000000 
						CHANNELS 3 Zrotation Yrotation Xrotation
						JOINT LeftHandIndex1
						{
							OFFSET 0.715260 -0.000000 -0.000000 
							CHANNELS 3 Zrotation Yrotation Xrotation
							End Site
							{
								OFFSET 0.000000 0.000000 0.000000 
							}
						}
					}
				}
			}
			JOINT RightArm
			{
				OFFSET -3.136600 1.374050 -0.404650 
				CHANNELS 3 Zrotation Yrotation Xrotation
				JOINT RightForeArm
				{
					OFFSET -5.241900 -0.000000 -0.000000 
					CHANNELS 3 Zrotation Yrotation Xrotation
					JOINT RightHand
					{
						OFFSET -3.444170 -0.000000 -0.000000 
						CHANNELS 3 Zrotation Yrotation Xrotation
						JOINT RightHandIndex1
						{
							OFFSET -0.622530 -0.000000 -0.000000 
							CHANNELS 3 Zrotation Yrotation Xrotation
							End Site
							{
								OFFSET 0.000000 0.000000 0.000000 
							}
						}
					}
				}
			}
		}
	}
}
MOTION
Frames: 12
Frame Time: 0.041667
1.776582 17.847489 5.745551 -2.501130 -0.525821 2.419218 -10.010667 0.488226 1.758423 -0.878614 4.022811 11.057885 -0.412821 3.985326 -4.974085 2.521600 -9.877000 -28.579300 15.545431 0.129143 -0.524917 -0.512745 -7.102950 16.809704 1.857624 -12.148011 -10.111038 -0.442900 -4.270000 11.837600 0.812825 -0.944146 -3.479422 2.712093 -0.927941 -2.666131 2.173150 -0.668904 19.663818 -0.302800 -0.114600 9.183800 -94.650663 8.738889 5.357993 13.755688 -31.462183 -4.315091 -0.387227 0.635928 8.120705 -7.125000 0.000000 0.000000 89.860792 -0.301706 8.887452 -4.948442 20.198721 -0.796431 -1.271430 -1.556808 15.853824 7.125000 0.000000 0.000000 
1.776783 17.849500 5.736398 -2.601466 -0.516113 2.441400 -9.897250 0.461412 1.660844 -0.871621 4.054598 11.143199 -0.408747 3.967826 -4.967919 2.504200 -9.845600 -28.478000 15.654718 0.142819 -0.501563 -0.500766 -7.051989 16.665763 1.856137 -12.136821 -10.035472 -0.449400 -4.300700 11.924200 0.828745 -0.914910 -3.451794 2.685903 -0.915682 -2.636653 2.181755 -0.633616 19.656612 -0.287800 -0.101600 9.195300 -94.676931 8.729372 5.339451 13.687483 -31.384415 -4.285200 -0.386818 0.633001 8.095910 -7.125000 0.000000 0.000000 89.861622 -0.209945 9.129548 -4.982943 20.268249 -0.805333 -1.263985 -1.566675 15.673294 7.125000 0.000000 0.000000 
1.776481 17.851311 5.727245 -2.746133 -0.535755 2.415981 -9.745814 0.428875 1.611337 -0.863004 4.096001 11.254180 -0.419915 4.018600 -5.006991 2.499400 -9.836900 -28.450100 15.820256 0.224131 -0.435856 -0.493976 -7.025293 16.589790 1.860081 -12.155249 -10.034986 -0.469500 -4.394800 12.190100 0.847942 -0.875129 -3.414718 2.638744 -0.898632 -2.621362 2.267266 -0.618791 19.568990 -0.250000 -0.091100 9.165000 -94.665045 8.742101 5.353474 13.630931 -31.320267 -4.259426 -0.386637 0.629556 8.116797 -7.125000 0.000000 0.000000 89.861459 -0.180694 9.543670 -5.076621 20.440174 -0.829829 -1.249024 -1.582979 15.284152 7.125000 0.000000 0.000000 
1.775676 17.852317 5.716885 -2.791806 -0.529978 2.397751 -9.693292 0.392112 1.553099 -0.855569 4.133794 11.356061 -0.417253 4.008211 -5.017403 2.488900 -9.817600 -28.388100 15.885245 0.226724 -0.413597 -0.487518 -7.001360 16.519303 1.878753 -12.238513 -9.978141 -0.462300 -4.361300 12.095300 0.846985 -0.834090 -3.367354 2.615066 -0.880512 -2.581098 2.391884 -0.626003 19.402884 -0.194800 -0.092200 9.099100 -94.657889 8.721438 5.434025 13.589423 -31.275131 -4.240630 -0.386571 0.627865 8.135096 -7.125000 0.000000 0.000000 89.880241 -0.108279 9.828674 -5.168727 20.608036 -0.857089 -1.242414 -1.587852 14.991195 7.125000 0.000000 0.000000 
1.775878 17.854228 5.705520 -2.771740 -0.477674 2.425208 -9.703941 0.345533 1.428199 -0.848178 4.174038 11.465066 -0.402678 3.943611 -4.985860 2.486800 -9.813800 -28.375800 15.858984 0.159276 -0.487413 -0.483231 -6.982776 16.471521 1.877157 -12.230872 -9.986898 -0.501000 -4.537900 12.595000 0.827668 -0.808423 -3.321978 2.593214 -0.869185 -2.513817 2.466841 -0.622933 19.215486 -0.159800 -0.092400 9.027900 -94.678236 8.594386 5.351332 13.473239 -31.136789 -4.192562 -0.386947 0.624007 8.373176 -7.125000 0.000000 0.000000 89.896197 0.003503 10.061645 -5.225665 20.716961 -0.876062 -1.242647 -1.583641 14.780160 7.125000 0.000000 0.000000 
1.777487 17.854127 5.694556 -2.772364 -0.420969 2.420548 -9.701360 0.299784 1.345639 -0.842219 4.210084 11.562345 -0.398755 3.928113 -5.001049 2.499600 -9.837200 -28.451100 15.839949 0.047299 -0.544912 -0.481134 -6.972884 16.448960 1.847284 -12.098489 -10.073762 -0.612100 -5.007200 13.929200 0.810730 -0.797962 -3.283758 2.554368 -0.865441 -2.473874 2.419239 -0.600255 19.061018 -0.179800 -0.088700 8.971300 -94.681215 8.490005 5.216237 13.340394 -30.976734 -4.142851 -0.388717 0.621747 8.685385 -7.125000 0.000000 0.000000 89.919669 0.100074 10.209497 -5.246519 20.764917 -0.886189 -1.242674 -1.578597 14.701855 7.125000 0.000000 0.000000 
1.779297 17.852317 5.683894 -2.779069 -0.354344 2.379591 -9.694138 0.246357 1.316498 -0.837137 4.240955 11.646081 -0.392455 3.905934 -5.055522 2.511700 -9.859200 -28.522000 15.833207 -0.094438 -0.563537 -0.479797 -6.965742 16.429094 1.833806 -12.036748 -10.066541 -0.670500 -5.236500 14.584400 0.809109 -0.793347 -3.263588 2.540514 -0.863902 -2.499418 2.395499 -0.581137 18.952544 -0.182500 -0.087200 8.933000 -94.680017 8.536131 5.263458 13.320363 -30.955241 -4.141582 -0.390868 0.626136 8.738518 -7.125000 0.000000 0.000000 89.914347 0.167924 10.375190 -5.255703 20.785772 -0.888748 -1.241746 -1.578529 14.535304 7.125000 0.000000 0.000000 
1.779700 17.852820 5.672830 -2.802473 -0.312381 2.350568 -9.664302 0.204611 1.272147 -0.831773 4.270159 11.725239 -0.379111 3.856445 -5.129564 2.524200 -9.881900 -28.595000 15.854355 -0.141704 -0.573601 -0.477909 -6.957828 16.406796 1.839893 -12.063304 -10.040425 -0.667900 -5.226400 14.555400 0.819072 -0.781036 -3.246296 2.546115 -0.858355 -2.531056 2.477383 -0.556226 18.867309 -0.135600 -0.077100 8.903300 -94.669442 8.594910 5.422345 13.338453 -30.981494 -4.151585 -0.392099 0.630089 8.598284 -7.125000 0.000000 0.000000 89.898026 0.214710 10.651230 -5.299281 20.863235 -0.897542 -1.233007 -1.590731 14.273378 7.125000 0.000000 0.000000 
1.778593 17.853624 5.662068 -2.795155 -0.312812 2.362782 -9.663586 0.191879 1.190188 -0.829153 4.290883 11.780587 -0.371855 3.833779 -5.208439 2.541100 -9.912200 -28.692800 15.843829 -0.079016 -0.598573 -0.477665 -6.951975 16.393914 1.842234 -12.070399 -9.995461 -0.666700 -5.221700 14.542100 0.818029 -0.751064 -3.233554 2.558998 -0.843176 -2.536434 2.560146 -0.514282 18.835660 -0.089700 -0.055900 8.894400 -94.653740 8.571147 5.504803 13.277829 -30.913452 -4.127979 -0.391825 0.628713 8.511199 -7.125000 0.000000 0.000000 89.890219 0.236075 10.926311 -5.369480 20.989288 -0.918294 -1.218310 -1.601884 14.096472 7.125000 0.000000 0.000000 
1.778392 17.854027 5.650702 -2.782948 -0.290143 2.408317 -9.666920 0.174058 1.099128 -0.830504 4.290711 11.778514 -0.367146 3.812396 -5.189075 2.562500 -9.950700 -28.817100 15.821198 -0.002734 -0.663880 -0.480485 -6.952428 16.401129 1.845752 -12.078530 -9.888376 -0.641700 -5.124700 14.264500 0.808863 -0.728564 -3.242475 2.552859 -0.830730 -2.561964 2.567572 -0.463621 18.841910 -0.079100 -0.032300 8.901500 -94.658478 8.538855 5.421106 13.187149 -30.804891 -4.092777 -0.391251 0.625230 8.573427 -7.125000 0.000000 0.000000 89.877541 0.224406 11.170144 -5.442375 21.117035 -0.940727 -1.208536 -1.605393 13.931923 7.125000 0.000000 0.000000 
1.780102 17.855234 5.637627 -2.768974 -0.240387 2.422776 -9.680597 0.124860 1.067698 -0.835073 4.274689 11.732839 -0.365914 3.800983 -5.122482 2.593100 -10.005300 -28.993800 15.792279 -0.001658 -0.735640 -0.483700 -6.959459 16.425269 1.850435 -12.096072 -9.830351 -0.600500 -4.960700 13.796400 0.783660 -0.710549 -3.238146 2.498944 -0.821957 -2.588138 2.602751 -0.440288 18.792345 -0.063200 -0.019500 8.883800 -94.633649 8.507822 5.333312 13.123841 -30.726296 -4.067305 -0.391258 0.621734 8.676118 -7.125000 0.000000 0.000000 89.890411 0.223334 11.392740 -5.511849 21.235503 -0.957033 -1.205189 -1.613660 13.708124 7.125000 0.000000 0.000000 
1.781912 17.856541 5.625255 -2.670868 -0.205928 2.390477 -9.788163 0.087227 1.102038 -0.841730 4.250481 11.665591 -0.363873 3.785203 -5.044791 2.611700 -10.038200 -29.100400 15.669081 -0.064075 -0.779105 -0.487209 -6.971991 16.460538 1.845000 -12.069626 -9.798428 -0.583600 -4.891700 13.599800 0.737144 -0.682168 -3.211750 2.458705 -0.808702 -2.594235 2.700121 -0.442912 18.705037 -0.022600 -0.016500 8.846200 -94.569596 8.489342 5.385109 13.084040 -30.679736 -4.050891 -0.390613 0.618589 8.614655 -7.125000 0.000000 0.000000 89.920031 0.229360 11.571408 -5.581553 21.352341 -0.971036 -1.200187 -1.629731 13.507205 7.125000 0.000000 0.000000 
